<svg version="1" xmlns="http://www.w3.org/2000/svg" width="666.667" height="666.667" viewBox="0 0 500.000000 500.000000"><path d="M0 230v230h15.5l15.7-35.2c8.6-19.4 25.1-56.4 36.6-82.3C136 189.6 168 117.7 180.9 88.5l14.7-33h101.8l4.7 10.5c4.6 10.4 22 49.4 38.9 87 4.8 10.7 18.9 42.4 31.5 70.5 12.5 28 33.2 74.4 46 103 12.8 28.6 30.1 67.3 38.5 86 8.3 18.7 16.5 37 18.2 40.7l3.1 6.8H500V0H0v230z"/><path d="M239.5 170.2c-7.6 18.6-31.7 77-36 87.3-12 28.6-26.5 64-26.5 64.7 0 .4 31.1.8 69.1.8 65.4 0 69.1-.1 68.6-1.8-.3-.9-6.2-15.4-13.2-32.2-7-16.8-14.6-35-16.9-40.6-20.9-51-38.2-92.4-38.7-92.4-.3 0-3.2 6.4-6.4 14.2zM139.9 409.2c-1.8 4.6-7.2 17.7-12 29.3l-8.8 21 126.1.3c69.4.1 126.3.1 126.4-.1.2-.2-.9-3.4-2.5-7.3-2.7-6.6-11.9-28.7-18.3-44.2l-3-7.2H143.2l-3.3 8.2z"/></svg>